# xmcd
#
# Track frame offsets:
#	150
#	29379
#	60338
#	71245
#	89172
#	98281
#	120124
#	124174
#	144099
#	149604
#	170894
#	182054
#	199751
#
# Disc length: 2926 seconds
#
# Revision: 1
# Processed by: cddbd v1.5.2PL0 Copyright (c) Steve Scherf et al.
# Submitted via: audiograbber 1.83.01
#
DISCID=b80b6c0d
DTITLE=Anaj - Kiss To Life
DYEAR=2016
DGENRE=Soul
TTITLE0=Sun Shines Softly
TTITLE1=Woman And Man (Georgia Anne Muldrow remix)
TTITLE2=Speak Low
TTITLE3=Live Your Life
TTITLE4=Puttkakka
TTITLE5=Do You Luve Me
TTITLE6=Du warst Böse
TTITLE7=Chilin
TTITLE8=Stay A Little Longer
TTITLE9=DA Way
TTITLE10=Calling You
TTITLE11=Badabdab
TTITLE12=You Can
EXTD=
EXTT0=
EXTT1=
EXTT2=
EXTT3=
EXTT4=
EXTT5=
EXTT6=
EXTT7=
EXTT8=
EXTT9=
EXTT10=
EXTT11=
EXTT12=
PLAYORDER=
